<?xml version="1.0" encoding="utf-8"?>
<!-- Generator: Adobe Illustrator 23.0.3, SVG Export Plug-In . SVG Version: 6.00 Build 0)  -->
<svg version="1.1" id="Layer_1" xmlns="http://www.w3.org/2000/svg" xmlns:xlink="http://www.w3.org/1999/xlink" x="0px" y="0px"
	 viewBox="0 0 640 480" style="enable-background:new 0 0 640 480;" xml:space="preserve">
<style type="text/css">
	.st0{fill-rule:evenodd;clip-rule:evenodd;fill:#28170B;}
	.st1{fill-rule:evenodd;clip-rule:evenodd;fill:#FF0000;}
	.st2{opacity:0.635;fill-rule:evenodd;clip-rule:evenodd;fill:#FF7F00;enable-background:new    ;}
	.st3{fill:#FFE6D5;}
	.st4{fill:#784421;}
	.st5{fill:#502D16;}
	.st6{fill:#28170B;}
	.st7{fill:#FFCCAA;}
	.st8{fill-rule:evenodd;clip-rule:evenodd;fill:#502D16;}
	.st9{fill:none;}
	.st10{fill-rule:evenodd;clip-rule:evenodd;fill:none;}
</style>
<g>
	<g>
		<path class="st0" d="M264,155.8l-61.5-36.1c0,0,2.4-16.5-4.4-20.7c-6.9-4.2-1.4,18-1.4,18s-10-29.4-18.7-19.4s11.2,21.1,11.2,21.1
			s-32-3-23.3,4c8.8,7.1,33.4-1.5,33.4-1.5l70.4,46.9C269.7,168.3,276.9,162.8,264,155.8L264,155.8z"/>
		<path class="st0" d="M270.2,348.2c0,0-18.7,19.3-18.7,25c0,5.8,37.4,25.9,38.3,29.2c1,3.3-72,9.1-80.4,5.8s-3.8-17.5,13.1-19.3
			c16.8-1.7,46.8,5,46.8,5s-27.1-19.3-26.3-24.2c1-5,17.8-28.4,17.8-28.4L270.2,348.2L270.2,348.2z"/>
	</g>
	<path id="Orange" class="st1" d="M218.9,64.6c0,0,1.3-24.7,37.1-35.4c35.7-10.7,88.6,1.3,133.5,76.7s43.7,158.1,23.9,197
		s-79.6,99.8-158.6,59c-59.6-30.7-40.9-92-5.3-122.7c38.1-32.7,14.6-64.9-6.6-87.3C221.5,129.4,204.3,103.5,218.9,64.6L218.9,64.6z"
		/>
	<path class="st2" d="M344.9,54.4c0,0,51.6,51.9,64.8,120.4C423,243.1,423,291.6,375.3,334s-103,17.8-103,17.8s-27.7-24.7-1.3-38.9
		c26.4-14.2,93.8-8.3,111.1-63.7c17.2-55.5,3.9-118-22.4-141.5c-26.4-23.6-72.8-16.4-78.1-38.9c-5.3-22.4,3.9-31.8,23.9-31.8
		S346.3,55.6,344.9,54.4L344.9,54.4z"/>
</g>
<g>
	<g>
		<path class="st3" d="M281.8,140.4c0,9.7-7.4,17.7-16.6,17.7c-9.2,0-16.6-8-16.6-17.7c0-9.7,7.4-17.7,16.6-17.7
			C274.4,122.7,281.8,130.6,281.8,140.4z"/>
		<path class="st3" d="M365.7,129.7c0,17.6-16.6,31.8-37.1,31.8c-20.4,0-37.1-14.2-37.1-31.8c0-17.6,16.6-31.8,37.1-31.8
			C349.1,97.8,365.7,112,365.7,129.7z"/>
	</g>
	<path class="st4" d="M348.4,117.3c0,6.2-5,11.2-11.3,11.2c-6.3,0-11.3-5-11.3-11.2s5-11.2,11.3-11.2
		C343.4,106.1,348.4,111.1,348.4,117.3z"/>
	<path class="st5" d="M277.8,135.6c0,3.9-3.3,7.1-7.3,7.1c-3.9,0-7.3-3.1-7.3-7.1c0-3.9,3.3-7.1,7.3-7.1
		C274.5,128.5,277.8,131.7,277.8,135.6z"/>
	<g>
		<path class="st6" d="M346.1,114.7c0,2.1-1.3,4.1-3.2,5.1c-1.9,1-4.4,1-6.4,0c-1.9-1-3.2-3-3.2-5.1c0-2.1,1.3-4.1,3.2-5.1
			c1.9-1,4.4-1,6.4,0C344.9,110.6,346.1,112.5,346.1,114.7z"/>
		<path class="st6" d="M277.4,134.4c0,1.4-0.8,2.6-2.1,3.3c-1.3,0.7-3,0.7-4.3,0c-1.3-0.7-2.1-1.9-2.1-3.3c0-1.4,0.8-2.6,2.1-3.3
			c1.3-0.7,3-0.7,4.3,0C276.5,131.8,277.4,133.1,277.4,134.4z"/>
	</g>
	<path class="st7" d="M336.7,117c0,0.9-0.6,1.8-1.6,2.3c-1,0.5-2.1,0.5-3.2,0c-1.1-0.5-1.6-1.4-1.6-2.3s0.6-1.8,1.6-2.3
		c1.1-0.5,2.1-0.5,3.2,0C336.2,115.2,336.7,116,336.7,117z"/>
	<path class="st3" d="M341.3,120.4c0,0.5-0.4,1-1,1.4s-1.3,0.3-1.8,0c-0.6-0.3-1-0.8-1-1.4c0-0.5,0.4-1,1-1.4s1.3-0.3,1.8,0
		C341,119.4,341.3,119.9,341.3,120.4z"/>
	<path class="st7" d="M271.6,134.4c0,0.5-0.4,1-1,1.4c-0.6,0.3-1.3,0.3-1.8,0c-0.6-0.3-1-0.8-1-1.4c0-0.5,0.4-1,1-1.4s1.3-0.3,1.8,0
		C271.4,133.4,271.6,133.8,271.6,134.4z"/>
	<path class="st3" d="M273.3,137.9c0,0.4-0.2,0.7-0.7,0.9c-0.4,0.2-1,0.2-1.3,0c-0.4-0.2-0.7-0.5-0.7-0.9c0-0.4,0.2-0.7,0.7-0.9
		c0.4-0.2,1-0.2,1.3,0C273.1,137.3,273.3,137.5,273.3,137.9z"/>
</g>
<g>
	<path class="st8" d="M286.2,264.9c11.2-0.8-9.9,18.3,13.5,18.3c24,0,13.7-22.7,25.4-21.7c10.6,0.9,6,37.3-26.5,33.4
		C271.4,291.6,274.5,265.6,286.2,264.9L286.2,264.9z"/>
	<path class="st8" d="M360.4,355.7c0,0-28,33.4-25.2,44.2c2.9,10.9,20.5,19.3,20.5,19.3s-21.6-6.7-39.3,0
		c-17.8,6.7-25.2,15.9-18.7,18.3c6.4,2.5,93.6-0.8,89.7-6.7c-3.8-5.8-44.9-24.2-42.1-38.3c2.9-14.1,23.4-30,25.2-34.2
		C372.5,354,367.8,352.4,360.4,355.7L360.4,355.7z"/>
	<path class="st8" d="M408,172.2l33.7-58.4c0,0-11.2-13.3-7.5-20.1c3.8-6.7,11.2,15.1,11.2,15.1s-7.5-30,5.6-25
		c13.1,5,1.8,23.4,1.8,23.4s26.3-16.6,22.4-6.7s-29.8,13.3-29.8,13.3l-35.4,71.7C409.8,185.5,400.5,184,408,172.2L408,172.2z"/>
</g>
<rect x="172.8" y="362.1" class="st9" width="54.9" height="65.3"/>
<text transform="matrix(1 0 0 1 668 -28)" style="font-family:'MyriadPro-Regular'; font-size:12px;">Lorem ipsum</text>
<rect x="556" y="-8" class="st10" width="13" height="56"/>
</svg>
