<?xml version="1.0" encoding="utf-8"?>
<!-- Generator: Adobe Illustrator 23.0.3, SVG Export Plug-In . SVG Version: 6.00 Build 0)  -->
<svg version="1.1" id="Layer_1" xmlns="http://www.w3.org/2000/svg" xmlns:xlink="http://www.w3.org/1999/xlink" x="0px" y="0px"
	 viewBox="0 0 640 480" style="enable-background:new 0 0 640 480;" xml:space="preserve">
<style type="text/css">
	.st0{fill-rule:evenodd;clip-rule:evenodd;fill:#28170B;}
	.st1{fill-rule:evenodd;clip-rule:evenodd;fill:#FF0000;}
	.st2{opacity:0.635;fill-rule:evenodd;clip-rule:evenodd;fill:#FF7F00;enable-background:new    ;}
	.st3{fill:#FFE6D5;}
	.st4{fill:#784421;}
	.st5{fill:#502D16;}
	.st6{fill:#28170B;}
	.st7{fill:#FFCCAA;}
	.st8{fill-rule:evenodd;clip-rule:evenodd;fill:#502D16;}
</style>
<g>
	<g>
		<path class="st0" d="M286.5,168.7l-53.9-35.5c0,0,2.1-16.3-3.9-20.4c-6.1-4.1-1.3,17.7-1.3,17.7s-8.8-28.9-16.4-19
			c-7.6,9.9,9.8,20.8,9.8,20.8s-28-3-20.4,3.9c7.7,7,29.3-1.4,29.3-1.4l61.7,46.1C291.5,180.9,297.8,175.5,286.5,168.7L286.5,168.7z
			"/>
		<path class="st0" d="M291.9,357.7c0,0-16.4,18.9-16.4,24.6c0,5.7,32.8,25.4,33.6,28.7c0.8,3.3-63.1,9-70.5,5.7
			c-7.4-3.3-3.3-17.2,11.5-18.9c14.8-1.6,41,4.9,41,4.9s-23.8-18.9-23-23.8c0.8-4.9,15.6-27.9,15.6-27.9L291.9,357.7L291.9,357.7z"
			/>
	</g>
	<path id="Orange" class="st1" d="M246.9,79c0,0,1.2-24.3,32.5-34.8s77.7,1.2,117.1,75.4c39.4,74.2,38.3,155.3,20.9,193.6
		c-17.4,38.3-69.8,98-139.1,58c-52.2-30.1-35.9-90.4-4.6-120.6c33.4-32.1,12.8-63.8-5.8-85.8C249.2,142.7,234.2,117.2,246.9,79
		L246.9,79z"/>
	<path class="st2" d="M357.5,69c0,0,45.2,51,56.8,118.3c11.6,67.2,11.6,114.8-30.1,156.5c-41.7,41.7-90.4,17.4-90.4,17.4
		s-24.3-24.3-1.2-38.3s82.3-8.1,97.4-62.6s3.5-115.9-19.7-139.1c-23.2-23.2-63.8-16.2-68.4-38.3c-4.6-22,3.5-31.3,20.9-31.3
		S358.7,70.2,357.5,69L357.5,69z"/>
</g>
<g>
	<g>
		<path class="st3" d="M296.8,132.1c0,9.6-6.5,17.4-14.5,17.4c-8,0-14.5-7.8-14.5-17.4c0-9.6,6.5-17.4,14.5-17.4
			C290.3,114.7,296.8,122.5,296.8,132.1z"/>
		<path class="st3" d="M370.3,121.6c0,17.3-14.5,31.3-32.5,31.3c-17.9,0-32.5-14-32.5-31.3c0-17.3,14.5-31.3,32.5-31.3
			C355.8,90.3,370.3,104.3,370.3,121.6z"/>
	</g>
	<path class="st4" d="M355.2,109.4c0,6.1-4.4,11-9.9,11s-9.9-4.9-9.9-11c0-6.1,4.4-11,9.9-11S355.2,103.3,355.2,109.4z"/>
	<path class="st5" d="M293.3,127.4c0,3.8-2.9,7-6.4,7s-6.4-3.1-6.4-7c0-3.8,2.9-7,6.4-7S293.3,123.6,293.3,127.4z"/>
	<g>
		<path class="st6" d="M353.2,106.8c0,2.1-1.1,4-2.8,5c-1.7,1-3.9,1-5.7,0c-1.7-1-2.8-3-2.8-5c0-2.1,1.1-4,2.8-5c1.7-1,3.9-1,5.7,0
			C352.1,102.8,353.2,104.7,353.2,106.8z"/>
		<path class="st6" d="M292.9,126.3c0,1.3-0.7,2.6-1.9,3.3c-1.2,0.7-2.6,0.7-3.8,0c-1.2-0.7-1.9-1.9-1.9-3.3c0-1.3,0.7-2.6,1.9-3.3
			c1.2-0.7,2.6-0.7,3.8,0C292.2,123.7,292.9,124.9,292.9,126.3z"/>
	</g>
	<path class="st7" d="M344.9,109.1c0,0.9-0.5,1.8-1.4,2.3c-0.9,0.5-1.9,0.5-2.8,0c-0.9-0.5-1.4-1.3-1.4-2.3c0-0.9,0.5-1.8,1.4-2.3
		c0.9-0.5,1.9-0.5,2.8,0C344.4,107.3,344.9,108.2,344.9,109.1z"/>
	<path class="st3" d="M349,112.5c0,0.5-0.3,1-0.8,1.3c-0.5,0.3-1.1,0.3-1.6,0c-0.5-0.3-0.8-0.8-0.8-1.3c0-0.5,0.3-1,0.8-1.3
		c0.5-0.3,1.1-0.3,1.6,0C348.7,111.5,349,112,349,112.5z"/>
	<path class="st7" d="M287.9,126.3c0,0.5-0.3,1-0.8,1.3c-0.5,0.3-1.1,0.3-1.6,0c-0.5-0.3-0.8-0.8-0.8-1.3c0-0.5,0.3-1,0.8-1.3
		c0.5-0.3,1.1-0.3,1.6,0C287.6,125.2,287.9,125.7,287.9,126.3z"/>
	<path class="st3" d="M289.3,129.7c0,0.4-0.2,0.7-0.6,0.9c-0.3,0.2-0.8,0.2-1.1,0c-0.3-0.2-0.6-0.5-0.6-0.9c0-0.4,0.2-0.7,0.6-0.9
		c0.3-0.2,0.8-0.2,1.1,0C289.1,129,289.3,129.3,289.3,129.7z"/>
</g>
<g>
	<path class="st8" d="M300.6,254.4c9.8-0.8-8.7,18,11.8,18c21,0,12-22.3,22.3-21.3c9.3,0.9,5.2,36.6-23.2,32.8
		C287.7,280.7,290.4,255.2,300.6,254.4L300.6,254.4z"/>
	<path class="st8" d="M365.7,343.7c0,0-24.6,32.8-22.1,43.4c2.5,10.7,18,18.9,18,18.9s-18.9-6.6-34.4,0c-15.6,6.6-22.1,15.6-16.4,18
		c5.7,2.5,82-0.8,78.7-6.6c-3.3-5.7-39.3-23.8-36.9-37.7c2.5-13.9,20.5-29.5,22.1-33.6C376.3,342.1,372.2,340.4,365.7,343.7
		L365.7,343.7z"/>
	<path class="st8" d="M407.5,163.4L437,106c0,0-9.8-13.1-6.6-19.7c3.3-6.6,9.8,14.8,9.8,14.8s-6.6-29.5,4.9-24.6
		c11.5,4.9,1.6,23,1.6,23s23-16.4,19.7-6.6c-3.3,9.8-26.2,13.1-26.2,13.1l-31.1,70.5C409.1,176.5,400.9,174.9,407.5,163.4
		L407.5,163.4z"/>
</g>
</svg>
